# xmcd CD database file
#
# Track frame offsets:
#	150
#	31196
#	64023
#	87846
#	127538
#	157659
#	184271
#	213082
#	241975
#	276919
#	298333
#
# Disc length: 4346 seconds
#
# Revision: 0
# Processed by: cddbd v1.5.1PL2 Copyright (c) Steve Scherf et al.
# Submitted via: CDex 1.51
#
DISCID=8e10f80b
DTITLE=Mads Bærendsen Trio - The New York Project
DYEAR=2005
DGENRE=Jazz
TTITLE0=Dorothy's Secret
TTITLE1=West Coast
TTITLE2=Tenderly (Gross - Lawrence)
TTITLE3=Tribute to Maria
TTITLE4=Come Sunday (Ellington)
TTITLE5=Rush Hour
TTITLE6=Trouble Child (Joni Mitchell)
TTITLE7=The End
TTITLE8=No. 11
TTITLE9=McParty
TTITLE10=Winter Waltz
EXTD=YEAR: 2005
EXTT0=
EXTT1=
EXTT2=
EXTT3=
EXTT4=
EXTT5=
EXTT6=
EXTT7=
EXTT8=
EXTT9=
EXTT10=
PLAYORDER=
